<svg width="42" height="42" fill="none" xmlns="http://www.w3.org/2000/svg"><rect x="0.5" y="0.5" width="41" height="41" rx="5.5" fill="#fff"></rect><path d="M0 6a6 6 0 0 1 6-6h30a6 6 0 0 1 6 6v2H0V6Z" fill="#FF6C37"></path><circle cx="7" cy="4" r="1" fill="#fff"></circle><circle cx="10" cy="4" r="1" fill="#fff"></circle><circle cx="13" cy="4" r="1" fill="#fff"></circle><path opacity="0.5" fill-rule="evenodd" clip-rule="evenodd" d="M30.279 19.152C29.909 19 29.439 19 28.5 19s-1.409 0-1.779.152a2.008 2.008 0 0 0-1.09 1.083c-.094.223-.13.483-.145.863a1.615 1.615 0 0 1-.796 1.353 1.64 1.64 0 0 1-1.579.008c-.338-.178-.583-.276-.825-.308a2.027 2.027 0 0 0-1.49.396c-.318.242-.553.646-1.022 1.453-.47.807-.704 1.21-.757 1.605a1.99 1.99 0 0 0 .4 1.479c.148.192.357.353.68.555.477.297.783.803.783 1.361 0 .558-.306 1.064-.782 1.36-.324.203-.533.364-.682.556a1.99 1.99 0 0 0-.399 1.479c.053.394.287.798.757 1.605.47.807.704 1.21 1.022 1.453.424.323.96.465 1.49.396.242-.032.487-.13.825-.308a1.64 1.64 0 0 1 1.58.008c.486.28.774.795.795 1.353.015.38.051.64.145.863.204.49.596.88 1.09 1.083.37.152.84.152 1.779.152s1.409 0 1.779-.152a2.008 2.008 0 0 0 1.09-1.083c.094-.223.13-.483.145-.863.02-.558.309-1.074.796-1.353a1.64 1.64 0 0 1 1.579-.008c.338.178.583.276.825.308.53.07 1.066-.073 1.49-.396.318-.242.553-.646 1.022-1.453.47-.807.704-1.21.757-1.605a1.99 1.99 0 0 0-.4-1.479c-.148-.192-.357-.353-.68-.555-.477-.297-.783-.803-.783-1.361 0-.558.306-1.064.782-1.36.324-.203.533-.364.682-.556a1.99 1.99 0 0 0 .399-1.479c-.053-.395-.287-.798-.757-1.605-.47-.807-.704-1.21-1.022-1.453a2.026 2.026 0 0 0-1.49-.396c-.242.032-.487.13-.825.308a1.64 1.64 0 0 1-1.58-.008 1.615 1.615 0 0 1-.795-1.353c-.015-.38-.051-.64-.145-.863a2.008 2.008 0 0 0-1.09-1.083Z" fill="#FF6C37"></path><path d="M31.523 29c0 1.657-1.354 3-3.023 3-1.67 0-3.023-1.343-3.023-3s1.353-3 3.023-3c1.67 0 3.023 1.343 3.023 3Z" fill="#FF6C37"></path><path d="M4.674 20c-.281 0-.373-.129-.276-.387l2.872-7.54c.12-.317.304-.475.55-.475h.82c.247 0 .43.158.551.474l2.871 7.541c.098.258.006.387-.275.387h-.932c-.257 0-.437-.135-.539-.404L9.72 18.02H6.742l-.597 1.576c-.102.27-.282.404-.54.404h-.931Zm2.613-3.434h1.887l-.72-1.863a3.239 3.239 0 0 1-.16-.474 9.149 9.149 0 0 1-.052-.446H8.22c-.02.196-.04.344-.059.446a2.653 2.653 0 0 1-.152.474l-.72 1.863ZM13.516 20c-.274 0-.41-.146-.41-.44v-7.523c0-.293.136-.44.41-.44h2.191c1.406 0 2.38.23 2.924.686.547.457.82 1.106.82 1.946 0 .84-.273 1.488-.82 1.945-.543.457-1.518.685-2.924.685h-.89v2.701c0 .294-.137.44-.41.44h-.891Zm1.3-4.57h.885c.781 0 1.313-.092 1.594-.276.281-.187.422-.496.422-.925 0-.43-.14-.737-.422-.92-.281-.188-.813-.282-1.594-.282h-.885v2.403Zm6.48 4.57c-.273 0-.41-.146-.41-.44v-7.523c0-.293.137-.44.41-.44h.892c.273 0 .41.147.41.44v7.524c0 .293-.137.439-.41.439h-.891Z" fill="#000"></path><rect x="0.5" y="0.5" width="41" height="41" rx="5.5" stroke="#FF6C37"></rect></svg>