<svg width="42" height="42" fill="none" xmlns="http://www.w3.org/2000/svg"><rect x="0.5" y="0.5" width="41" height="41" rx="5.5" fill="#fff"></rect><path d="M0 6a6 6 0 0 1 6-6h30a6 6 0 0 1 6 6v2H0V6Z" fill="#FF5C00"></path><circle cx="7" cy="4" r="1" fill="#fff"></circle><circle cx="10" cy="4" r="1" fill="#fff"></circle><circle cx="13" cy="4" r="1" fill="#fff"></circle><path d="M31.889 37c-3.082 0-5.585-2.489-5.585-5.54 0-1.482.578-2.875 1.63-3.912a5.606 5.606 0 0 1 3.955-1.615c3.081 0 5.585 2.49 5.585 5.541 0 3.052-2.504 5.526-5.585 5.526Zm-2.83-5.422a.47.47 0 0 0-.34.133.46.46 0 0 0-.134.326.46.46 0 0 0 .133.326l2.297 2.252a.47.47 0 0 0 .34.133.47.47 0 0 0 .341-.133l3.956-3.882a.46.46 0 0 0 .133-.326.46.46 0 0 0-.133-.326.47.47 0 0 0-.34-.133.47.47 0 0 0-.342.133l-3.614 3.541-1.956-1.91a.47.47 0 0 0-.34-.134ZM7.533 35.83A2.542 2.542 0 0 1 5 33.296V15.533A2.542 2.542 0 0 1 7.533 13h26.8a2.542 2.542 0 0 1 2.534 2.533v12.09l-.415-.43a6.345 6.345 0 0 0-1.156-.949l-.103-.074V15.948a1.29 1.29 0 0 0-1.29-1.289H7.949a1.29 1.29 0 0 0-1.289 1.29v16.933a1.29 1.29 0 0 0 1.29 1.288h18.295l.075.134c.207.4.459.785.755 1.126l.326.385-19.867.015Zm2.756-4.697c-.637 0-1.156-.503-1.156-1.126V19.415c0-.622.519-1.126 1.156-1.126h10c.637 0 1.185.518 1.185 1.126v10.592c0 .608-.548 1.126-1.185 1.126h-10Zm9.481-1.674c-.133-.918-.281-1.066-.296-1.081a1.338 1.338 0 0 1-.133-.148c-.267-.282-.697-.741-1.867-.904-.43-.06-.74-.237-.918-.533-.326-.534-.06-1.26.03-1.511-.016-.075 0-.193.029-.386l.015-.118.103-.06c.697-.385.711-1.451.711-1.451v-.86c-.014-.148-.133-1.481-1.185-1.481h-.044l-1.156-.37a.951.951 0 0 0-.681.281c-.504.504-.504 1.511-.504 1.57v.741c-.015.785.726 1.704.74 1.719l.045.044.015.06c.03.222.045.355.015.429.044.252.118.904-.237 1.393-.222.281-.548.474-.978.533-1.052.148-1.348.548-1.556.83-.059.088-.118.163-.177.222-.267.34-.326.8-.326 1.081h8.355Zm3.6-1.866v-1.645h2.845v1.645H23.37Zm0-3.526v-1.645h9.363v1.645H23.37Zm0-3.511v-1.66h9.363v1.66H23.37Z" fill="#FF5C00"></path><rect x="0.5" y="0.5" width="41" height="41" rx="5.5" stroke="#FF5C00"></rect></svg>