<svg width="42" height="42" fill="none" xmlns="http://www.w3.org/2000/svg"><path d="M0 6a6 6 0 0 1 6-6h30a6 6 0 0 1 6 6v20a6 6 0 0 1-6 6H12l-5.818 5.43c-.639.596-1.682.143-1.682-.731V32A4.5 4.5 0 0 1 0 27.5V6Z" fill="#47C919"></path><path opacity="0.75" d="M17.6 8.48a1.501 1.501 0 0 1-.08 2.12L11.704 16l5.816 5.4a1.5 1.5 0 0 1-2.04 2.2l-7-6.5a1.5 1.5 0 0 1 0-2.2l7-6.5a1.499 1.499 0 0 1 2.12.08Zm6.88 2.12a1.5 1.5 0 0 1 2.04-2.2l7 6.5a1.5 1.5 0 0 1 0 2.2l-7 6.5a1.5 1.5 0 0 1-2.04-2.2l5.816-5.4-5.816-5.4Z" fill="#fff"></path></svg>