<svg width="24" height="24" viewBox="0 0 24 24" fill="none" xmlns="http://www.w3.org/2000/svg"><path d="M17 12C19.7614 12 22 9.76142 22 7C22 4.23858 19.7614 2 17 2C14.2386 2 12 4.23858 12 7C12 7.79984 12.1878 8.55582 12.5217 9.22624C12.6105 9.4044 12.64 9.60803 12.5886 9.80031L12.2908 10.9133C12.1615 11.3965 12.6035 11.8385 13.0867 11.7092L14.1997 11.4114C14.392 11.36 14.5956 11.3895 14.7738 11.4783C15.4442 11.8122 16.2002 12 17 12Z" fill="#00aaff"></path><path d="M14.0124 16.7614L10.6069 15.5792L14.0124 15.0319L13.5569 15.5114L14.0124 16.7614ZM10.6069 15.5792L19.2575 15.6627L17.347 14.563L10.6069 15.5792ZM10.6069 15.5792L18.5449 21.7712L19.9655 20.2757L10.6069 15.5792ZM10.6069 15.5792L6.27161 17.9924C10.7009 22.6557 14.9261 22.8902 16.7499 22.7102L10.6069 15.5792ZM10.6069 15.5792L1.25401 8.00688C1.35326 9.85611 2.13843 13.641 6.27161 17.9924L10.6069 15.5792ZM8.73453 10.3223L9.02135 10.0203L7.12512 14.626L8.73453 10.3223ZM9.24668 6.26087L7.98568 4.47738L7.12512 14.626L9.24668 6.26087ZM3.7177 4.09288L2.1481 5.74537L10.6069 15.5792L7.12512 14.626L3.7177 4.09288ZM8.19073 9.80582C7.51826 9.45663 7.12512 14.626 7.12512 14.626C7.00824 14.7806 7.00213 14.7872 7.12512 14.626C7.1124 14.6212 7.02096 14.7854 7.12512 14.626C7.05218 14.7287 7.1124 14.6212 7.12512 14.626L10.6069 13.5401C9.1793 12.037 8.82765 11.1113 8.7609 10.6558C8.7287 10.4361 8.76141 10.3203 8.77435 10.2839C8.78162 10.2635 8.78638 10.2578 8.78172 10.2651C8.77947 10.2686 8.77498 10.2752 8.76742 10.2848C8.76363 10.2895 8.75907 10.2951 8.75363 10.3013C8.75091 10.3045 8.74796 10.3078 8.74479 10.3113C8.7432 10.313 8.74155 10.3148 8.73984 10.3166L8.73723 10.3194L8.7359 10.3209C8.7359 10.3209 8.73453 10.3223 8.19073 9.80582ZM7.12512 14.626C7.57542 14.6991 14.0104 16.7635 14.0124 16.7614C14.0168 16.757 14.0144 16.7593 14.0124 16.7614C14.0104 16.7635 14.0104 16.7635 14.0124 16.7614C14.008 16.7658 14.0104 16.7635 14.0124 16.7614C14.0104 16.7635 14.0104 16.7635 14.0124 16.7614L13.5933 15.4761L13.5583 15.51L13.5596 15.5085L13.5623 15.5058C13.5641 15.504 13.5658 15.5022 13.5674 15.5005C13.5708 15.4972 13.574 15.494 13.577 15.4911C13.583 15.4853 13.5885 15.4803 13.5933 15.4761C13.6028 15.4677 13.6099 15.4623 13.6145 15.4591C13.6239 15.4524 13.6229 15.4547 13.6102 15.4597C13.5909 15.4673 13.5 15.4994 13.3103 15.4686C12.9077 15.4032 12.0391 15.0479 10.6069 13.5401L7.12512 14.626ZM7.98568 4.47738C6.97209 3.0438 4.94388 2.80194 3.7177 4.09288L7.12512 14.626L7.98568 4.47738ZM10.6069 15.5792L2.1481 5.74537C1.61225 6.30952 1.20497 7.09321 1.25401 8.00688L10.6069 15.5792ZM10.6069 15.5792L16.7499 22.7102C17.497 22.6364 18.1016 22.238 18.5449 21.7712L10.6069 15.5792ZM9.02135 10.0203C9.98893 9.0017 10.0574 7.40753 9.24668 6.26087L7.12512 14.626L9.02135 10.0203ZM10.6069 15.5792L19.9655 20.2757C21.2704 18.9018 20.8904 16.6026 19.2575 15.6627L10.6069 15.5792ZM10.6069 15.5792L17.347 14.563C16.2485 13.9307 14.8861 14.112 14.0124 15.0319L10.6069 15.5792Z" fill="#00aaff"></path></svg>