<svg width="24" height="24" viewBox="0 0 24 24" fill="none" xmlns="http://www.w3.org/2000/svg"><path d="M17 12C19.7614 12 22 9.76143 22 6.99999C22 4.23858 19.7614 2 17 2C14.2386 2 12 4.23858 12 6.99999C12 7.79981 12.1878 8.55581 12.5217 9.22623C12.6105 9.40436 12.64 9.60806 12.5886 9.80028L12.2908 10.9133C12.1615 11.3965 12.6035 11.8385 13.0867 11.7092L14.1997 11.4114C14.392 11.36 14.5956 11.3895 14.7738 11.4783C15.4442 11.8122 16.2002 12 17 12Z" stroke="#a0a3bd" stroke-width="1.5"></path><path d="M14.6443 16.5445L15.0998 16.0649L14.0122 15.032L13.5567 15.5114L14.6443 16.5445ZM16.5985 15.863L18.509 16.9628L19.2573 15.6628L17.3468 14.5631L16.5985 15.863ZM18.8777 19.2427L17.4571 20.7383L18.5447 21.7712L19.9653 20.2757L18.8777 19.2427ZM16.6024 21.2174C15.1674 21.3592 11.4231 21.2383 7.35894 16.9595L6.27137 17.9924C10.7007 22.6558 14.9259 22.8902 16.7497 22.7102L16.6024 21.2174ZM7.35894 16.9595C3.48282 12.8786 2.83265 9.43628 2.7516 7.92653L1.25376 8.00685C1.35302 9.85613 2.13819 13.6411 6.27137 17.9924L7.35894 16.9595ZM8.7343 10.3223L9.02111 10.0204L7.93353 8.98733L7.64673 9.28928L8.7343 10.3223ZM9.24641 6.26087L7.98543 4.47738L6.76065 5.34335L8.02165 7.12683L9.24641 6.26087ZM3.71745 4.09288L2.14785 5.74537L3.23543 6.7784L4.80503 5.12591L3.71745 4.09288ZM8.19048 9.8058C7.64673 9.28928 7.64598 9.29003 7.64531 9.29078C7.64508 9.291 7.64441 9.29175 7.64388 9.29228C7.64298 9.29333 7.64201 9.2943 7.64103 9.29535C7.63901 9.29753 7.63698 9.2997 7.63488 9.30203C7.63068 9.3066 7.62626 9.31163 7.62161 9.31703C7.61223 9.32775 7.60195 9.34005 7.59093 9.35393C7.56895 9.38175 7.54413 9.41588 7.51803 9.4566C7.4657 9.53843 7.40896 9.64605 7.36091 9.78105C7.26321 10.0556 7.20997 10.4192 7.2765 10.8734C7.40721 11.7655 7.9918 12.9652 9.5191 14.5732L10.6067 13.5401C9.17905 12.0371 8.82738 11.1113 8.76063 10.6559C8.72845 10.4362 8.76116 10.3204 8.77413 10.2839C8.78141 10.2635 8.78613 10.2578 8.78148 10.2652C8.77923 10.2686 8.77473 10.2752 8.76716 10.2848C8.76341 10.2896 8.75883 10.2952 8.75336 10.3013C8.75066 10.3046 8.74773 10.3079 8.74458 10.3114C8.74293 10.313 8.74128 10.3148 8.73963 10.3166C8.73873 10.3177 8.7379 10.3186 8.737 10.3195C8.73655 10.3199 8.73588 10.3207 8.73566 10.321C8.73498 10.3217 8.73431 10.3223 8.19048 9.8058ZM9.5191 14.5732C11.042 16.1765 12.1921 16.8068 13.0696 16.9493C13.5199 17.0224 13.8844 16.964 14.1604 16.8551C14.2953 16.802 14.402 16.7395 14.4821 16.6826C14.5221 16.6543 14.5554 16.6274 14.5822 16.6039C14.5957 16.592 14.6075 16.5811 14.6178 16.571C14.623 16.5662 14.6278 16.5614 14.6322 16.5569C14.6344 16.5548 14.6365 16.5526 14.6385 16.5505C14.6395 16.5494 14.6405 16.5485 14.6415 16.5475C14.642 16.547 14.6427 16.5461 14.6429 16.546C14.6436 16.5452 14.6443 16.5445 14.1005 16.028C13.5567 15.5114 13.5574 15.5108 13.5581 15.5101C13.5583 15.5098 13.559 15.509 13.5594 15.5086C13.5603 15.5077 13.5612 15.5068 13.5621 15.5059C13.5639 15.5041 13.5656 15.5023 13.5672 15.5006C13.5706 15.4973 13.5738 15.494 13.5768 15.4912C13.5828 15.4853 13.5883 15.4804 13.5931 15.4762C13.6026 15.4678 13.6097 15.4624 13.6143 15.4592C13.6237 15.4525 13.6227 15.4547 13.61 15.4598C13.5907 15.4673 13.4998 15.4994 13.3101 15.4687C12.9075 15.4033 12.0389 15.0479 10.6067 13.5401L9.5191 14.5732ZM7.98543 4.47738C6.97185 3.0438 4.94363 2.80194 3.71745 4.09288L4.80503 5.12591C5.32787 4.57546 6.2483 4.6187 6.76065 5.34335L7.98543 4.47738ZM2.7516 7.92653C2.73017 7.52723 2.90405 7.12729 3.23543 6.7784L2.14785 5.74537C1.61201 6.30952 1.20473 7.09321 1.25376 8.00685L2.7516 7.92653ZM17.4571 20.7383C17.1781 21.032 16.8862 21.1895 16.6024 21.2174L16.7497 22.7102C17.4968 22.6364 18.1014 22.238 18.5447 21.7712L17.4571 20.7383ZM9.02111 10.0204C9.98868 9.00173 10.0572 7.40753 9.24641 6.26087L8.02165 7.12683C8.44375 7.72388 8.37903 8.51828 7.93353 8.98733L9.02111 10.0204ZM18.509 16.9628C19.3298 17.4353 19.4905 18.5975 18.8777 19.2427L19.9653 20.2757C21.2702 18.9017 20.8902 16.6027 19.2573 15.6628L18.509 16.9628ZM15.0998 16.0649C15.4852 15.6592 16.0858 15.568 16.5985 15.863L17.3468 14.5631C16.2483 13.9307 14.8859 14.1121 14.0122 15.032L15.0998 16.0649Z" fill="#a0a3bd"></path></svg>