<svg width="24" height="24" viewBox="0 0 24 24" fill="none" xmlns="http://www.w3.org/2000/svg"><path d="M21.4286 2H2.57143C1.11429 2 0 3.11429 0 4.57143V20C0 21.4571 1.11429 22.5714 2.57143 22.5714H21.4286C22.8857 22.5714 24 21.4571 24 20V4.57143C24 3.11429 22.8857 2 21.4286 2ZM8.65714 5.08571C8.74286 5 8.74286 4.91429 8.82857 4.82857C9.17143 4.48571 9.68571 4.48571 10.0286 4.82857C10.1143 4.91429 10.2 5 10.2 5.08571C10.2857 5.17143 10.2857 5.34286 10.2857 5.42857C10.2857 5.51429 10.2857 5.68571 10.2 5.77143C10.1143 5.85714 10.1143 5.94286 10.0286 6.02857C9.85714 6.2 9.68571 6.28571 9.42857 6.28571C9.34286 6.28571 9.17143 6.28571 9.08571 6.2C9 6.11429 8.91429 6.11429 8.82857 6.02857C8.74286 5.94286 8.65714 5.85714 8.65714 5.77143C8.57143 5.68571 8.57143 5.51429 8.57143 5.42857C8.57143 5.34286 8.57143 5.17143 8.65714 5.08571ZM6.08571 5.08571C6.17143 5 6.17143 4.91429 6.25714 4.82857C6.34286 4.74286 6.42857 4.65714 6.51429 4.65714C6.85714 4.48571 7.2 4.57143 7.45714 4.82857C7.54286 4.91429 7.62857 5 7.62857 5.08571C7.71429 5.17143 7.71429 5.34286 7.71429 5.42857C7.71429 5.68571 7.62857 5.85714 7.45714 6.02857C7.28571 6.2 7.11429 6.28571 6.85714 6.28571C6.6 6.28571 6.42857 6.2 6.25714 6.02857C6.08571 5.85714 6 5.68571 6 5.42857C6 5.34286 6 5.17143 6.08571 5.08571ZM3.68571 4.82857L3.77143 4.74286C3.85714 4.74286 3.85714 4.65714 3.94286 4.65714C4.02857 4.57143 4.02857 4.57143 4.11429 4.57143C4.2 4.57143 4.37143 4.57143 4.45714 4.57143C4.54286 4.57143 4.54286 4.57143 4.62857 4.65714C4.71429 4.65714 4.71429 4.74286 4.8 4.74286L4.88571 4.82857C4.97143 4.91429 5.05714 5 5.05714 5.08571C5.14286 5.17143 5.14286 5.34286 5.14286 5.42857C5.14286 5.51429 5.14286 5.68571 5.05714 5.77143C5.05714 5.85714 4.97143 5.94286 4.88571 6.02857C4.71429 6.2 4.54286 6.28571 4.28571 6.28571C4.02857 6.28571 3.85714 6.2 3.68571 6.02857C3.51429 5.85714 3.42857 5.68571 3.42857 5.42857C3.42857 5.17143 3.51429 5 3.68571 4.82857ZM12.8571 18.2857C12.8571 18.8 12.5143 19.1429 12 19.1429H3.42857C2.91429 19.1429 2.57143 18.8 2.57143 18.2857V17.6L8.48571 14.9429L12.8571 17.8571V18.2857ZM12.8571 15.8L9.08571 13.2286C8.82857 13.0571 8.57143 13.0571 8.22857 13.1429L2.57143 15.7143V9.71429C2.57143 9.2 2.91429 8.85714 3.42857 8.85714H12C12.5143 8.85714 12.8571 9.2 12.8571 9.71429V15.8ZM21.4286 18.2857C21.4286 18.8 21.0857 19.1429 20.5714 19.1429H15.4286C14.9143 19.1429 14.5714 18.8 14.5714 18.2857V15.7143C14.5714 15.2 14.9143 14.8571 15.4286 14.8571H20.5714C21.0857 14.8571 21.4286 15.2 21.4286 15.7143V18.2857ZM20.5714 14H18C17.4857 14 17.1429 13.6571 17.1429 13.1429C17.1429 12.6286 17.4857 12.2857 18 12.2857H20.5714C21.0857 12.2857 21.4286 12.6286 21.4286 13.1429C21.4286 13.6571 21.0857 14 20.5714 14ZM20.5714 11.4286H15.4286C14.9143 11.4286 14.5714 11.0857 14.5714 10.5714C14.5714 10.0571 14.9143 9.71429 15.4286 9.71429H20.5714C21.0857 9.71429 21.4286 10.0571 21.4286 10.5714C21.4286 11.0857 21.0857 11.4286 20.5714 11.4286Z" fill="#00aaff"></path><path d="M6.59972 11.6856C6.25686 11.3428 5.74258 11.3428 5.39972 11.6856C5.31401 11.7713 5.22829 11.857 5.22829 11.9428C5.14258 12.0285 5.14258 12.1999 5.14258 12.2856C5.14258 12.5428 5.22829 12.7142 5.39972 12.8856C5.48544 12.9713 5.57115 13.057 5.65686 13.057C5.74258 13.057 5.91401 13.1428 5.99972 13.1428C6.25686 13.1428 6.42829 13.057 6.59972 12.8856C6.77115 12.7142 6.85686 12.5428 6.85686 12.2856C6.85686 12.1999 6.85686 12.0285 6.77115 11.9428C6.68543 11.857 6.68544 11.7713 6.59972 11.6856Z" fill="#00aaff"></path></svg>