<svg width="24" height="24" viewBox="0 0 24 24" fill="none" xmlns="http://www.w3.org/2000/svg"><path d="M13.0723 2.44382L20.8756 10.2469H20.873L21.5562 10.9298C21.7682 11.1416 21.9125 11.4116 21.9709 11.7055C22.0294 11.9994 21.9993 12.3041 21.8845 12.5809C21.7697 12.8577 21.5754 13.0942 21.3261 13.2606C21.0769 13.4269 20.7838 13.5155 20.4842 13.5153H20.1701H19.7701V13.9153V20.1588C19.7696 20.6463 19.576 21.1137 19.2316 21.4589C18.8874 21.8038 18.4207 21.9983 17.9334 22H14.6145C14.5591 22 14.5059 21.978 14.4667 21.9388C14.4275 21.8997 14.4055 21.8465 14.4055 21.7911V16.8954C14.4051 16.5183 14.2551 16.1562 13.9884 15.8895C13.7217 15.6228 13.3601 15.4728 12.983 15.4724H11.0218C10.6447 15.4728 10.2827 15.6228 10.016 15.8895C9.74933 16.1562 9.59927 16.5178 9.59885 16.8949V21.7888C9.59885 21.8442 9.57684 21.8974 9.53766 21.9366C9.49847 21.9757 9.44531 21.9978 9.38987 21.9978H6.06406C5.57584 21.9972 5.10777 21.803 4.76256 21.4579C4.4174 21.1127 4.22325 20.6448 4.2227 20.1567C4.2227 20.1567 4.2227 20.1566 4.2227 20.1567V13.913V13.513H3.82271H3.48479H3.43576C3.14592 13.4979 2.86646 13.3999 2.63068 13.2304C2.39255 13.0593 2.20922 12.8227 2.10295 12.5494C1.99668 12.2761 1.97204 11.9778 2.03202 11.6908C2.092 11.4038 2.23402 11.1403 2.44084 10.9325L2.44987 10.9234L2.45759 10.9146L10.9298 2.44384C11.0704 2.30315 11.2375 2.19148 11.4213 2.11534C11.6051 2.03919 11.8021 2 12.001 2C12.2 2 12.397 2.03919 12.5807 2.11534C12.7646 2.19148 12.9316 2.30313 13.0723 2.44382Z" fill="#00aaff"></path></svg>