<svg width="42" height="42" fill="none" xmlns="http://www.w3.org/2000/svg"><g clip-path="url(#project-planning_svg__a)"><path d="M28 4.986 14 7.017 0 4.986v29.997l14 2.032 14-2.032 14 2.032V7.016L28 4.986Z" fill="#FBBA00"></path><path d="M0 4.986v29.997l14 2.032V7.016L0 4.986Z" fill="#FBDB80"></path><path d="M28 4.986v29.997l14 2.032V7.016L28 4.986Z" fill="#F28E00"></path><path d="m3.153 21.597 7.694 1.428v-2.616L3.153 18.98v2.617ZM3.153 12.738l7.694 1.426V11.55l-7.694-1.43v2.618ZM3.153 17.167l7.694 1.427V15.98l-7.694-1.43v2.618ZM3.153 26.027l7.694 1.423v-2.611L3.153 23.41v2.616ZM3.153 30.456l7.694 1.424v-2.612l-7.694-1.432v2.62Z" fill="#FBBA00"></path><path d="m31.153 21.597 7.694 1.428v-2.616l-7.694-1.429v2.617ZM31.153 30.456l7.694 1.424v-2.612l-7.694-1.432v2.62ZM31.153 12.738l7.694 1.426V11.55l-7.694-1.43v2.618ZM31.153 17.167l7.694 1.427V15.98l-7.694-1.43v2.618ZM31.153 26.027l7.694 1.423v-2.611l-7.694-1.428v2.616Z" fill="#C60"></path><path d="m17.153 18.595 7.694-1.428V14.55l-7.694 1.43v2.614ZM17.153 31.88l7.694-1.424V18.98l-7.694 1.429V31.88Zm2.571-9.332 2.552-.474v6.24l-2.552.475v-6.241ZM17.153 14.164l7.694-1.426V10.12l-7.694 1.43v2.614Z" fill="#F28E00"></path></g><defs><clipPath id="project-planning_svg__a"><path fill="#fff" d="M0 0h42v42H0z"></path></clipPath></defs></svg>