<svg width="24" height="24" viewBox="0 0 24 24" fill="none" xmlns="http://www.w3.org/2000/svg"><path fill-rule="evenodd" clip-rule="evenodd" d="M15.3645 4.51575H8.61975L9.04 2.27225C9.06975 2.11425 9.20725 2 9.3675 2H14.6145C14.6922 1.99991 14.7674 2.02701 14.8272 2.0766C14.887 2.12619 14.9275 2.19515 14.9418 2.2715L15.3645 4.51575ZM18.0068 18.493H14.6318L15.2805 21.732C15.3118 21.8878 15.4482 22 15.607 22H18.262C18.4708 22 18.6278 21.81 18.5892 21.6048L18.0068 18.493ZM5.41925 21.6052C5.38075 21.8105 5.538 22 5.7465 22H8.402C8.56075 22 8.69725 21.8878 8.7285 21.732L9.37525 18.493H6.00025L5.41925 21.6052ZM22 6.34325V16.6558C22 16.9208 21.8948 17.1749 21.7075 17.3624C21.5203 17.5499 21.2662 17.6554 21.0012 17.6558H2.999C2.73396 17.6555 2.47986 17.55 2.29254 17.3625C2.10522 17.175 2 16.9208 2 16.6558V6.34325C2 6.07821 2.10522 5.82401 2.29254 5.6365C2.47986 5.44899 2.73396 5.34352 2.999 5.34325H21.001C21.2661 5.34352 21.5202 5.44899 21.7075 5.6365C21.8948 5.82401 22 6.07821 22 6.34325ZM12.1482 12.0702C12.1482 11.3317 11.8548 10.6235 11.3325 10.1012C10.8103 9.57898 10.1021 9.28557 9.3635 9.2855C8.62496 9.28557 7.91668 9.57898 7.39445 10.1012C6.87223 10.6235 6.57882 11.3317 6.57875 12.0702C6.57882 12.8088 6.87223 13.5171 7.39445 14.0393C7.91668 14.5615 8.62496 14.8549 9.3635 14.855C10.1021 14.8549 10.8103 14.5615 11.3325 14.0393C11.8548 13.5171 12.1482 12.8088 12.1482 12.0702ZM17.7542 14.8398L13.5782 7.6065L12.255 9.89823C12.7108 10.5035 12.9815 11.256 12.9815 12.0702C12.9815 13.1808 12.4782 14.1755 11.688 14.8398H17.7542Z" fill="#00aaff"></path></svg>