<svg width="42" height="42" fill="none" xmlns="http://www.w3.org/2000/svg"><path d="M20.972 16.084c2.544 0 4.594-2.027 4.594-4.542C25.566 9.028 23.532 7 20.972 7c-2.543 0-4.594 2.028-4.594 4.542a4.571 4.571 0 0 0 4.594 4.542ZM10.308 29.241H2.055c-2.674 0-2.822-4.04.05-4.04h7.153l4.101-5.97c1.214-1.638 2.593-2.417 4.545-2.417h6.12c1.953 0 3.33.714 4.545 2.418l4.118 5.97h7.203c2.887 0 2.707 4.039.098 4.039h-8.253c-.656 0-1.444-.227-1.903-.925l-3.15-4.445L26.665 35H15.378l-.017-11.129-3.15 4.445c-.46.681-1.247.925-1.903.925Z" fill="#FFB800"></path><path d="m3.174 22.86-.149-1.255 1.212.283-.156-1.235 1.174.276-.156-1.248 1.533.283.936-.856c.906.18 1.894-.048 2.603-.696 1.104-1.01 1.107-2.643 0-3.656-1.108-1.014-2.887-1.003-3.987.003-.701.641-.958 1.538-.768 2.36L1 21.158 1.052 23l2.122-.14Zm5.624-6.842a.541.541 0 0 1 0-.812.668.668 0 0 1 .888 0 .538.538 0 0 1 0 .812.667.667 0 0 1-.888 0Z" fill="#fff"></path><path d="m3.174 22.86-.149-1.255 1.212.283-.156-1.235 1.174.276-.156-1.248 1.533.283.936-.856c.906.18 1.894-.048 2.603-.696 1.104-1.01 1.107-2.643 0-3.656-1.108-1.014-2.887-1.003-3.987.003-.701.641-.958 1.538-.768 2.36L1 21.158 1.052 23l2.122-.14Zm5.624-6.842a.541.541 0 0 1 0-.812.668.668 0 0 1 .888 0 .538.538 0 0 1 0 .812.667.667 0 0 1-.888 0Z" fill="#FFB800" fill-opacity="0.5"></path><path d="M41 16.737V24h-7v-7.263h.854V15.03c0-1.666 1.213-3.03 2.696-3.03 1.482 0 2.695 1.364 2.695 3.03v1.707H41Zm-2.911 4.02c.296-.212.485-.575.485-1 0-.666-.485-1.212-1.078-1.212-.594 0-1.079.546-1.079 1.213 0 .424.189.788.485 1l-.215 1.424h1.617l-.215-1.424Zm1.087-5.727c0-1-.728-1.818-1.618-1.818-.89 0-1.617.819-1.617 1.819v1.707h3.235V15.03Z" fill="#fff"></path><path d="M41 16.737V24h-7v-7.263h.854V15.03c0-1.666 1.213-3.03 2.696-3.03 1.482 0 2.695 1.364 2.695 3.03v1.707H41Zm-2.911 4.02c.296-.212.485-.575.485-1 0-.666-.485-1.212-1.078-1.212-.594 0-1.079.546-1.079 1.213 0 .424.189.788.485 1l-.215 1.424h1.617l-.215-1.424Zm1.087-5.727c0-1-.728-1.818-1.618-1.818-.89 0-1.617.819-1.617 1.819v1.707h3.235V15.03Z" fill="#FFB800" fill-opacity="0.5"></path></svg>