<svg width="42" height="42" fill="none" xmlns="http://www.w3.org/2000/svg"><path d="M29.102 28.847a2.993 2.993 0 0 0 2.672-3.1 3.002 3.002 0 0 0-2.993-2.887h-.107a2.99 2.99 0 0 0-2.886 3.1c.053.802.374 1.497.855 1.978-1.817 3.581-4.596 6.2-8.765 8.392-2.833 1.496-5.773 2.03-8.712 1.657-2.405-.321-4.276-1.39-5.452-3.154-1.71-2.619-1.87-5.452-.427-8.285 1.015-2.03 2.619-3.527 3.634-4.275-.214-.695-.534-1.871-.695-2.726-7.75 5.612-6.948 13.201-4.596 16.783 1.764 2.672 5.345 4.329 9.3 4.329 1.069 0 2.137-.107 3.206-.374 6.842-1.336 12.026-5.399 14.966-11.438Zm9.406-6.628c-4.062-4.757-10.048-7.376-16.889-7.376h-.855a2.937 2.937 0 0 0-2.619-1.603h-.107a2.99 2.99 0 0 0-2.886 3.1 3.002 3.002 0 0 0 2.993 2.886h.107a3.01 3.01 0 0 0 2.619-1.817h.962c4.062 0 7.91 1.175 11.384 3.474 2.672 1.764 4.596 4.062 5.665 6.841.909 2.245.855 4.436-.107 6.307-1.496 2.833-4.008 4.383-7.322 4.383-2.138 0-4.169-.641-5.238-1.122a31.575 31.575 0 0 1-2.405 1.924c2.299 1.069 4.65 1.657 6.895 1.657 5.13 0 8.926-2.833 10.369-5.666 1.55-3.1 1.443-8.445-2.566-12.988Zm-27.15 7.536a3.002 3.002 0 0 0 2.992 2.886h.107a2.99 2.99 0 0 0 2.886-3.1 3.002 3.002 0 0 0-2.993-2.886h-.107c-.107 0-.267 0-.374.054-2.191-3.635-3.1-7.59-2.779-11.866.214-3.207 1.283-5.986 3.153-8.285 1.55-1.977 4.543-2.94 6.574-2.993 5.666-.107 8.07 6.949 8.231 9.782.695.16 1.87.534 2.673.801C31.079 5.49 25.733 1 20.604 1c-4.81 0-9.247 3.474-11.01 8.605-2.46 6.842-.856 13.416 2.137 18.6-.267.374-.427.962-.374 1.55Z" fill="#764ABC"></path></svg>