<svg width="24" height="24" viewBox="0 0 24 24" fill="none" xmlns="http://www.w3.org/2000/svg"><rect y="2" width="24" height="20.5714" rx="2" fill="#00aaff"></rect><circle cx="2.75" cy="4.75" r="0.75" fill="white"></circle><circle cx="5.25" cy="4.75" r="0.75" fill="white"></circle><circle cx="7.75" cy="4.75" r="0.75" fill="white"></circle><path d="M13.7278 15.7808C13.1278 16.3811 12.9778 17.0561 13.8771 17.9558C14.7771 18.8558 16.3528 18.3304 16.4271 19.6058C17.3271 18.1808 16.8018 16.7558 15.9028 15.8561C15.0032 14.9554 14.2528 15.1811 13.7278 15.7808Z" fill="white"></path><path d="M13.6522 15.5556C13.9522 15.2556 14.0276 14.8056 13.7279 14.4309C13.2776 13.7556 6.97789 8.28061 6.97789 8.28061C6.67789 7.98061 6.22789 7.90594 6.07789 8.13094C5.92823 8.28061 6.00289 8.73061 6.22789 9.03094C6.22789 9.03094 10.5029 14.2813 12.3779 15.7813C12.7529 16.0063 13.2032 16.0063 13.5029 15.7053L13.6522 15.5556Z" fill="white"></path></svg>