<svg width="24" height="24" viewBox="0 0 24 24" fill="none" xmlns="http://www.w3.org/2000/svg"><path d="M21.4286 2H2.57143C1.11429 2 0 3.11429 0 4.57143V20C0 21.4571 1.11429 22.5714 2.57143 22.5714H21.4286C22.8857 22.5714 24 21.4571 24 20V4.57143C24 3.11429 22.8857 2 21.4286 2ZM6.08571 5.08571C6.17143 5 6.17143 4.91429 6.25714 4.82857C6.34286 4.74286 6.42857 4.65714 6.51429 4.65714C6.85714 4.48571 7.2 4.57143 7.45714 4.82857C7.54286 4.91429 7.62857 5 7.62857 5.08571C7.71429 5.17143 7.71429 5.34286 7.71429 5.42857C7.71429 5.68571 7.62857 5.85714 7.45714 6.02857C7.28571 6.2 7.11429 6.28571 6.85714 6.28571C6.6 6.28571 6.42857 6.2 6.25714 6.02857C6.08571 5.85714 6 5.68571 6 5.42857C6 5.34286 6 5.17143 6.08571 5.08571ZM3.42857 5.42857C3.42857 5.17143 3.51429 5 3.68571 4.82857L3.77143 4.74286C3.85714 4.74286 3.85714 4.65714 3.94286 4.65714C4.02857 4.57143 4.02857 4.57143 4.11429 4.57143C4.2 4.57143 4.37143 4.57143 4.45714 4.57143C4.54286 4.57143 4.54286 4.57143 4.62857 4.65714C4.71429 4.65714 4.71429 4.74286 4.8 4.74286L4.88571 4.82857C4.97143 4.91429 5.05714 5 5.05714 5.08571C5.14286 5.17143 5.14286 5.34286 5.14286 5.42857C5.14286 5.51429 5.14286 5.68571 5.05714 5.77143C5.05714 5.85714 4.97143 5.94286 4.88571 6.02857C4.71429 6.2 4.54286 6.28571 4.28571 6.28571C4.02857 6.28571 3.85714 6.2 3.68571 6.02857C3.51429 5.85714 3.42857 5.68571 3.42857 5.42857ZM8.31429 16.8286C8.65714 17.1714 8.65714 17.6857 8.31429 18.0286C8.14286 18.2 7.97143 18.2857 7.71429 18.2857C7.45714 18.2857 7.28571 18.2 7.11429 18.0286L4.54286 15.4571C4.2 15.1143 4.2 14.6 4.54286 14.2571L7.11429 11.6857C7.45714 11.3429 7.97143 11.3429 8.31429 11.6857C8.65714 12.0286 8.65714 12.5429 8.31429 12.8857L6.34286 14.8571L8.31429 16.8286ZM9.08571 6.2C9 6.11429 8.91429 6.11429 8.82857 6.02857C8.74286 5.94286 8.65714 5.85714 8.65714 5.77143C8.57143 5.68571 8.57143 5.51429 8.57143 5.42857C8.57143 5.34286 8.57143 5.17143 8.65714 5.08571C8.74286 5 8.74286 4.91429 8.82857 4.82857C9.17143 4.48571 9.68571 4.48571 10.0286 4.82857C10.1143 4.91429 10.2 5 10.2 5.08571C10.2857 5.17143 10.2857 5.34286 10.2857 5.42857C10.2857 5.51429 10.2857 5.68571 10.2 5.77143C10.1143 5.85714 10.1143 5.94286 10.0286 6.02857C9.85714 6.2 9.68571 6.28571 9.42857 6.28571C9.34286 6.28571 9.17143 6.28571 9.08571 6.2ZM14.4857 11.7714L11.0571 18.6286C10.8857 18.9714 10.6286 19.1429 10.2857 19.1429C10.1143 19.1429 10.0286 19.1429 9.94286 19.0571C9.51429 18.8857 9.34286 18.3714 9.6 17.9429L13.0286 11.0857C13.2 10.6571 13.7143 10.4857 14.1429 10.7429C14.4857 10.9143 14.6571 11.4286 14.4857 11.7714ZM19.4571 15.4571L16.8857 18.0286C16.7143 18.2 16.5429 18.2857 16.2857 18.2857C16.0286 18.2857 15.8571 18.2 15.6857 18.0286C15.3429 17.6857 15.3429 17.1714 15.6857 16.8286L17.6571 14.8571L15.6857 12.8857C15.3429 12.5429 15.3429 12.0286 15.6857 11.6857C16.0286 11.3429 16.5429 11.3429 16.8857 11.6857L19.4571 14.2571C19.8 14.6 19.8 15.1143 19.4571 15.4571Z" fill="#00aaff"></path></svg>