<svg width="42" height="42" fill="none" xmlns="http://www.w3.org/2000/svg"><g clip-path="url(#conflict-resolution_svg__a)"><path d="M5.5 1a1 1 0 0 1 1-1h12a1 1 0 0 1 1 1v8.962a1 1 0 0 1-1 1H9.329a1 1 0 0 0-.769.36L7.27 12.874c-.599.72-1.769.296-1.769-.64V1Z" fill="#3785FA"></path><path d="M8.58 5.48h7.84m0 0-1.96-2.019m1.96 2.02L14.46 7.5" stroke="#A3C8FF" stroke-linecap="round" stroke-linejoin="round"></path><path d="M36.5 1a1 1 0 0 0-1-1h-12a1 1 0 0 0-1 1v8.962a1 1 0 0 0 1 1h9.171a1 1 0 0 1 .769.36l1.291 1.552c.599.72 1.769.296 1.769-.64V1Z" fill="#3785FA"></path><path d="M33.42 5.48h-7.84m0 0 1.96-2.019m-1.96 2.02L27.54 7.5" stroke="#A3C8FF" stroke-linecap="round" stroke-linejoin="round"></path><path d="M24.29 15 27 17.71M22.23 16.327l1.62 3.475M18.346 19.866l1.62-3.475M15 17.71 17.71 15" stroke="#A3C8FF" stroke-width="1.5" stroke-linecap="round"></path><g clip-path="url(#conflict-resolution_svg__b)"><ellipse cx="8" cy="39.996" rx="9.091" ry="9.545" fill="#A3C8FF"></ellipse><ellipse cx="8" cy="24.818" rx="3.636" ry="3.818" fill="#3785FA"></ellipse></g><g clip-path="url(#conflict-resolution_svg__c)"><ellipse cx="34" cy="39.996" rx="9.091" ry="9.545" fill="#A3C8FF"></ellipse><ellipse cx="34" cy="24.818" rx="3.636" ry="3.818" fill="#3785FA"></ellipse></g></g><defs><clipPath id="conflict-resolution_svg__a"><path fill="#fff" d="M0 0h42v42H0z"></path></clipPath><clipPath id="conflict-resolution_svg__b"><rect y="21" width="16" height="21" rx="8" fill="#fff"></rect></clipPath><clipPath id="conflict-resolution_svg__c"><rect x="26" y="21" width="16" height="21" rx="8" fill="#fff"></rect></clipPath></defs></svg>