<svg width="42" height="42" fill="none" xmlns="http://www.w3.org/2000/svg"><path d="m26.023 15.17-4.224 3.911-3.921-7.868 2.025-4.524c.512-.902 1.35-.914 1.861 0l4.259 8.481Z" fill="#FFA000"></path><path d="M21.8 19.08 6 33.694l11.88-22.48 3.92 7.866Z" fill="#F57F17"></path><path d="M30.654 9.189c.757-.717 1.536-.475 1.733.543l4.108 23.765L22.87 41.63c-.478.266-1.745.37-1.745.37s-1.152-.14-1.594-.381L6 33.694 30.654 9.19Z" fill="#FFCA28"></path><path d="M17.88 11.213 6 33.694 11.294.835c.199-1.018.78-1.122 1.303-.22l5.282 10.598Z" fill="#FFA000"></path></svg>