<svg width="24" height="24" viewBox="0 0 24 24" fill="none" xmlns="http://www.w3.org/2000/svg"><g clip-path="url(#clip0_721_1368)"><path d="M15.2207 8.18388C14.6309 8.08581 13.2732 8.07503 12.1301 8.32413C12.0569 8.27575 11.9835 8.22573 11.9111 8.18125C11.6902 8.04592 11.4735 7.9315 11.2582 7.84525C11.0495 7.76223 10.8414 7.70505 10.6238 7.69356V7.69263C10.2977 7.66614 9.98115 7.65438 9.6901 7.65438C9.24699 7.65503 8.86899 7.67955 8.58887 7.72628H8.58999C8.55127 7.73219 8.5088 7.7358 8.46268 7.7358C8.22062 7.7387 7.88555 7.62367 7.58157 7.45759C7.37663 7.34777 7.12266 7.40594 6.98602 7.59424L3.64969 12.1952C3.53607 12.3518 3.53199 12.5639 3.63905 12.7254C3.72371 12.8523 3.79449 12.9839 3.84122 13.1157C3.9084 13.3017 4.00566 13.4707 4.11793 13.6351C4.23033 13.7988 4.35868 13.9577 4.49265 14.1094L4.54515 14.1597C4.54515 14.1597 4.78538 14.3578 5.16816 14.6729C5.06827 14.8161 5.01338 14.986 5.01141 15.1652C5.00897 15.4012 5.09837 15.6248 5.26379 15.7938C5.43179 15.9654 5.65637 16.0598 5.89646 16.0598C6.06465 16.0598 6.22543 16.0114 6.36549 15.9228C6.27188 16.064 6.2199 16.2285 6.21793 16.4014C6.2153 16.6374 6.30502 16.8607 6.47026 17.0293C6.63793 17.2013 6.86269 17.2957 7.10293 17.2957C7.29165 17.2957 7.47029 17.2343 7.62099 17.1244C7.34677 17.4683 7.36163 17.97 7.67687 18.2927C7.84458 18.4639 8.06912 18.5584 8.30902 18.5584H8.30921C8.54194 18.5584 8.76193 18.4685 8.92927 18.3048L9.09287 18.1423C9.02438 18.2678 8.98351 18.407 8.98187 18.5538C8.97943 18.7901 9.06882 19.0134 9.23419 19.1824C9.40205 19.3537 9.62677 19.4481 9.86687 19.4481C10.0994 19.4481 10.3192 19.3586 10.4881 19.1938L10.5876 19.0928C10.6374 19.132 10.6829 19.1673 10.72 19.1961C10.7504 19.219 10.7762 19.2386 10.7999 19.2557L10.8351 19.2805L10.8849 19.3113C11.072 19.4139 11.251 19.4583 11.3933 19.4897C11.4642 19.5044 11.525 19.5145 11.5701 19.5207L11.6251 19.528L11.6422 19.5296L11.6487 19.5303L11.6528 19.5309L11.6572 19.5312L11.6631 19.5316C11.6685 19.5316 11.6659 19.5322 11.6943 19.5329L11.7278 19.5316C12.0395 19.5087 12.3346 19.4014 12.5769 19.2165C12.6733 19.1426 12.7576 19.0533 12.8332 18.9557C12.9824 19.004 13.1404 19.0328 13.3048 19.0328C13.9718 19.0325 14.533 18.6072 14.7504 18.0156C14.7746 18.0139 14.7986 18.013 14.8224 18.0068C14.9071 18.0221 14.9929 18.0333 15.0818 18.0333C15.7436 18.0326 16.3036 17.6155 16.5246 17.0317C16.5261 17.0304 16.5276 17.0298 16.529 17.0288L16.581 17.0337C17.4359 17.0337 18.1279 16.341 18.1282 15.4866C18.1287 15.2493 18.0959 14.9868 18.0055 14.7139C18.5922 14.1955 19.4521 13.3946 19.6075 12.9599C19.6824 12.7507 20.1032 12.249 20.2254 12.078L16.9151 7.51267C16.4929 7.75173 15.6736 8.25972 15.2207 8.18388ZM17.1995 15.4864C17.1991 15.828 16.9227 16.1045 16.5811 16.1052C16.4964 16.1052 16.4173 16.0882 16.3436 16.0575C16.3363 16.0542 16.3286 16.0535 16.3212 16.0512L15.7476 15.3534C15.6024 15.1854 15.3483 15.1664 15.1801 15.3115C15.0118 15.4566 14.9932 15.711 15.1384 15.8793L15.6933 16.5556C15.6578 16.8632 15.3993 17.104 15.0819 17.1044C14.9311 17.104 14.7975 17.0505 14.6881 16.9606L14.1376 16.2891C13.9922 16.1211 13.7381 16.1025 13.5699 16.2476C13.4016 16.3928 13.3831 16.6471 13.5282 16.8151L13.9118 17.293C13.9111 17.3227 13.9082 17.3525 13.9134 17.3823C13.9201 17.4198 13.9232 17.4538 13.9232 17.4852C13.9228 17.8271 13.6463 18.1033 13.3048 18.1039C13.2156 18.1039 13.1334 18.0834 13.0576 18.05L12.3865 17.3447C12.2245 17.1923 11.9699 17.2002 11.8176 17.3623C11.6651 17.5241 11.673 17.779 11.8347 17.931L12.1496 18.3004C12.1181 18.3681 12.0761 18.4292 12.0122 18.4788C11.9303 18.5416 11.8177 18.5847 11.6896 18.5991C11.6522 18.5936 11.6013 18.5851 11.5409 18.5707C11.4659 18.5538 11.3867 18.526 11.3457 18.5043C11.3315 18.4939 11.2952 18.4671 11.2428 18.4259C11.213 18.403 11.1792 18.3769 11.1416 18.3468C11.2096 18.0611 11.1364 17.748 10.9159 17.5225C10.7481 17.3508 10.5234 17.2564 10.2833 17.2564C10.1483 17.2564 10.0188 17.2897 9.89982 17.3476L9.89626 17.3447L9.90033 17.3401C10.0692 17.1747 10.1636 16.9537 10.1662 16.7171C10.1686 16.4808 10.0789 16.2575 9.91355 16.0888C9.74583 15.9175 9.52102 15.8228 9.28107 15.8228C9.09343 15.8228 8.91563 15.8835 8.76558 15.9921C8.88699 15.8391 8.95749 15.6534 8.9596 15.455C8.96222 15.2187 8.87251 14.9954 8.70722 14.8268C8.53941 14.6548 8.31469 14.5604 8.0746 14.5604C7.84205 14.5604 7.62221 14.65 7.45487 14.814L7.30566 14.9624C7.48969 14.629 7.44722 14.2021 7.16771 13.9165C6.99971 13.7448 6.77499 13.6504 6.5349 13.6504C6.30235 13.6504 6.08251 13.7399 5.91483 13.904L5.81612 14.0031C5.74599 13.9452 5.67718 13.8887 5.61638 13.8386C5.38791 13.651 5.23051 13.5209 5.16727 13.4686C5.0604 13.3467 4.96149 13.2241 4.88419 13.1104C4.80118 12.9901 4.74235 12.8786 4.71587 12.8031C4.67696 12.694 4.63055 12.5913 4.58007 12.4939L7.51304 8.44961C7.80301 8.57088 8.12021 8.66205 8.46263 8.66439C8.5538 8.66439 8.64713 8.65783 8.74172 8.64217H8.7429C8.93818 8.60884 9.28627 8.58264 9.69001 8.58334C9.95626 8.58269 10.2491 8.5938 10.5485 8.61798L10.569 8.6193C10.6425 8.62127 10.7649 8.64742 10.9136 8.70756L10.9473 8.72294C9.69441 9.28872 7.91888 10.3773 7.33538 10.572C6.66905 10.794 6.61332 11.6827 8.11252 11.8491C9.61201 12.0161 10.9447 11.0715 11.2778 10.9054C11.5169 10.7858 13.0359 10.9319 13.8773 11.0241C14.2484 11.3905 14.5736 11.7304 14.8107 11.9874L16.6587 14.2466L16.6668 14.2558C16.9036 14.53 17.0321 14.7526 17.105 14.9435C17.1772 15.1344 17.1991 15.2991 17.1995 15.4864Z" fill="#00aaff"></path><path d="M23.9363 10.7634L19.4707 4.6045C19.3626 4.45511 19.1544 4.42244 19.0053 4.5303L17.0273 5.96463C16.8782 6.07249 16.8451 6.28103 16.9532 6.4301L21.4189 12.589C21.5269 12.738 21.7352 12.7713 21.8842 12.6635L23.8626 11.2289C24.0114 11.1206 24.0447 10.9124 23.9363 10.7634ZM22.4169 11.3167C22.1687 11.4965 21.8213 11.4409 21.6412 11.1928C21.4612 10.9448 21.5167 10.5976 21.7651 10.4175C22.0133 10.2374 22.3605 10.293 22.5406 10.5407C22.7205 10.7891 22.6651 11.1366 22.4169 11.3167Z" fill="#00aaff"></path><path d="M6.97297 5.96463L4.99457 4.5303C4.84583 4.42244 4.63747 4.45511 4.52929 4.6045L0.0634588 10.7634C-0.0447287 10.9125 -0.0110725 11.1207 0.137662 11.2289L2.11569 12.6635C2.26476 12.7713 2.47293 12.738 2.58079 12.589L7.04666 6.4301C7.15485 6.28103 7.12166 6.07249 6.97297 5.96463ZM5.65096 6.65238C5.47101 6.90049 5.12371 6.95603 4.87546 6.77594C4.62702 6.59618 4.57166 6.24836 4.75171 6.00063C4.93162 5.75219 5.27896 5.69664 5.52721 5.87678C5.77579 6.05683 5.83072 6.40394 5.65096 6.65238Z" fill="#00aaff"></path></g><defs><clipPath id="clip0_721_1368"><rect width="24" height="24" fill="white"></rect></clipPath></defs></svg>