<svg width="24" height="24" viewBox="0 0 24 24" fill="none" xmlns="http://www.w3.org/2000/svg"><path d="M4.2227 20.1567C4.22325 20.6448 4.4174 21.1127 4.76256 21.4579C5.10777 21.803 5.57584 21.9972 6.06406 21.9978H9.38987C9.44531 21.9978 9.49847 21.9757 9.53766 21.9366C9.57684 21.8974 9.59885 21.8442 9.59885 21.7888V16.8949C9.59927 16.5178 9.74933 16.1562 10.016 15.8895C10.2827 15.6228 10.6447 15.4728 11.0218 15.4724H12.983C13.3601 15.4728 13.7217 15.6228 13.9884 15.8895C14.2551 16.1562 14.4051 16.5183 14.4055 16.8954V21.7911C14.4055 21.8465 14.4275 21.8997 14.4667 21.9388C14.5059 21.978 14.5591 22 14.6145 22H17.9334C18.4207 21.9983 18.8874 21.8038 19.2316 21.4589C19.576 21.1137 19.7696 20.6463 19.7701 20.1588V13.9153V13.5153H20.1701H20.4842C20.7838 13.5155 21.0769 13.4269 21.3261 13.2606C21.5754 13.0942 21.7697 12.8577 21.8845 12.5809C21.9993 12.3041 22.0294 11.9994 21.9709 11.7055C21.9125 11.4116 21.7682 11.1416 21.5562 10.9298L20.873 10.2469H20.8756L13.0723 2.44382C12.9316 2.30313 12.7646 2.19148 12.5807 2.11534C12.397 2.03919 12.2 2 12.001 2C11.8021 2 11.6051 2.03919 11.4213 2.11534C11.2375 2.19148 11.0704 2.30315 10.9298 2.44384L2.45759 10.9146L2.44987 10.9234L2.44084 10.9325C2.23402 11.1403 2.092 11.4038 2.03202 11.6908C1.97204 11.9778 1.99668 12.2761 2.10295 12.5494C2.20922 12.8227 2.39255 13.0593 2.63068 13.2304C2.86646 13.3999 3.14592 13.4979 3.43576 13.513H3.48479H3.82271H4.2227V13.913V20.1567ZM4.2227 20.1567C4.2227 20.1566 4.2227 20.1567 4.2227 20.1567Z" stroke="#a0a3bd" stroke-width="1.5"></path></svg>