<svg xmlns="http://www.w3.org/2000/svg" width="24" height="24" viewBox="0 0 20 21" fill="none"><path d="M13.2 10.5801C13.2 11.213 13.0123 11.8317 12.6607 12.3579C12.3091 12.8841 11.8093 13.2943 11.2246 13.5365C10.6399 13.7787 9.99645 13.8421 9.37571 13.7186C8.75497 13.5951 8.18479 13.2903 7.73726 12.8428C7.28973 12.3953 6.98496 11.8251 6.86149 11.2044C6.73801 10.5836 6.80138 9.94022 7.04359 9.35549C7.28579 8.77077 7.69594 8.271 8.22218 7.91938C8.74841 7.56776 9.3671 7.38008 10 7.38008C10.8484 7.38105 11.6618 7.7185 12.2617 8.31841C12.8616 8.91831 13.199 9.73168 13.2 10.5801ZM20 6.18008V14.9801C19.9983 16.4648 19.4078 17.8882 18.3579 18.938C17.3081 19.9879 15.8847 20.5784 14.4 20.5801H5.6C4.1153 20.5784 2.6919 19.9879 1.64206 18.938C0.59222 17.8882 0.00168148 16.4648 0 14.9801V6.18008C0.00168148 4.69538 0.59222 3.27198 1.64206 2.22214C2.6919 1.1723 4.1153 0.58176 5.6 0.580078H14.4C15.8847 0.58176 17.3081 1.1723 18.3579 2.22214C19.4078 3.27198 19.9983 4.69538 20 6.18008ZM14.8 10.5801C14.8 9.63073 14.5185 8.7027 13.9911 7.91334C13.4636 7.12399 12.714 6.50876 11.8369 6.14546C10.9598 5.78216 9.99468 5.6871 9.06357 5.87231C8.13246 6.05752 7.27718 6.51467 6.60589 7.18597C5.9346 7.85726 5.47744 8.71254 5.29223 9.64365C5.10702 10.5748 5.20208 11.5399 5.56538 12.417C5.92868 13.294 6.54391 14.0437 7.33326 14.5711C8.12262 15.0986 9.05065 15.3801 10 15.3801C11.2726 15.3786 12.4927 14.8725 13.3925 13.9726C14.2924 13.0727 14.7986 11.8527 14.8 10.5801ZM16.4 5.38008C16.4 5.14274 16.3296 4.91073 16.1978 4.71339C16.0659 4.51606 15.8785 4.36225 15.6592 4.27142C15.4399 4.1806 15.1987 4.15683 14.9659 4.20314C14.7331 4.24944 14.5193 4.36373 14.3515 4.53155C14.1837 4.69937 14.0694 4.91319 14.0231 5.14597C13.9768 5.37875 14.0005 5.62003 14.0913 5.8393C14.1822 6.05857 14.336 6.24598 14.5333 6.37784C14.7307 6.5097 14.9627 6.58008 15.2 6.58008C15.5183 6.58008 15.8235 6.45365 16.0485 6.22861C16.2736 6.00356 16.4 5.69834 16.4 5.38008Z" fill="#00aaff"></path></svg>