<svg width="42" height="42" fill="none" xmlns="http://www.w3.org/2000/svg"><g clip-path="url(#team-leadership_svg__a)"><path d="M12.105 26.265c-.006-.065-.027-.125-.027-.19v-.56c0-.267.044-.53.131-.78 0 0 1.396-1.869 2.056-4.064-.723-1.526-1.379-3.424-1.379-5.306 0-.437.032-.86.077-1.276a4.945 4.945 0 0 0-3.62-1.546c-2.904 0-5.26 2.369-5.26 6.05 0 2.945 2.397 6.142 2.397 6.142.085.25.128.513.128.78v.56c0 .698-.407 1.334-1.043 1.625l-3.806 1.554A2.99 2.99 0 0 0 .07 31.431l-.065.837c-.034.435.115.865.412 1.184a1.56 1.56 0 0 0 1.15.502h6.22l.255-3.277.017-.088a5.364 5.364 0 0 1 3.034-3.911l1.012-.413Z" fill="#fff"></path><path d="M12.105 26.265c-.006-.065-.027-.125-.027-.19v-.56c0-.267.044-.53.131-.78 0 0 1.396-1.869 2.056-4.064-.723-1.526-1.379-3.424-1.379-5.306 0-.437.032-.86.077-1.276a4.945 4.945 0 0 0-3.62-1.546c-2.904 0-5.26 2.369-5.26 6.05 0 2.945 2.397 6.142 2.397 6.142.085.25.128.513.128.78v.56c0 .698-.407 1.334-1.043 1.625l-3.806 1.554A2.99 2.99 0 0 0 .07 31.431l-.065.837c-.034.435.115.865.412 1.184a1.56 1.56 0 0 0 1.15.502h6.22l.255-3.277.017-.088a5.364 5.364 0 0 1 3.034-3.911l1.012-.413Z" fill="#714EFF" fill-opacity="0.5"></path><path d="M41.93 31.43a2.986 2.986 0 0 0-1.688-2.176L36.434 27.7a1.786 1.786 0 0 1-1.04-1.626v-.56c0-.266.041-.53.129-.78 0 0 2.395-3.196 2.395-6.141 0-3.681-2.354-6.05-5.263-6.05a4.946 4.946 0 0 0-3.62 1.548c.046.416.078.837.078 1.274 0 1.88-.655 3.779-1.377 5.304.659 2.196 2.057 4.066 2.057 4.066.085.25.13.513.13.78v.56c0 .065-.022.125-.028.19l.943.385c1.653.756 2.789 2.217 3.104 3.936l.016.09.254 3.278h6.222c.437 0 .854-.18 1.149-.502a1.56 1.56 0 0 0 .412-1.184l-.065-.837Z" fill="#fff"></path><path d="M41.93 31.43a2.986 2.986 0 0 0-1.688-2.176L36.434 27.7a1.786 1.786 0 0 1-1.04-1.626v-.56c0-.266.041-.53.129-.78 0 0 2.395-3.196 2.395-6.141 0-3.681-2.354-6.05-5.263-6.05a4.946 4.946 0 0 0-3.62 1.548c.046.416.078.837.078 1.274 0 1.88-.655 3.779-1.377 5.304.659 2.196 2.057 4.066 2.057 4.066.085.25.13.513.13.78v.56c0 .065-.022.125-.028.19l.943.385c1.653.756 2.789 2.217 3.104 3.936l.016.09.254 3.278h6.222c.437 0 .854-.18 1.149-.502a1.56 1.56 0 0 0 .412-1.184l-.065-.837Z" fill="#714EFF" fill-opacity="0.5"></path><path d="m30.177 28.269-4.607-1.883a2.165 2.165 0 0 1-1.26-1.966v-.68c0-.32.051-.64.158-.943 0 0 2.897-3.866 2.897-7.432 0-4.455-2.85-7.32-6.365-7.32s-6.366 2.865-6.366 7.32c0 3.566 2.9 7.432 2.9 7.432.104.304.157.623.157.943v.68a2.17 2.17 0 0 1-1.262 1.966l-4.607 1.883a3.606 3.606 0 0 0-2.043 2.634l-.237 3.051h22.915l-.235-3.051a3.615 3.615 0 0 0-2.045-2.634Z" fill="#714EFF"></path></g><defs><clipPath id="team-leadership_svg__a"><path fill="#fff" d="M0 0h42v42H0z"></path></clipPath></defs></svg>