<svg xmlns="http://www.w3.org/2000/svg" width="24" height="24" viewBox="0 0 20 21" fill="none"><rect y="0.580078" width="20" height="20" fill="#880707" fill-opacity="0.01"></rect><path fill-rule="evenodd" clip-rule="evenodd" d="M4.55094 20.1197V7.24606H0.272461V20.1196H4.55094V20.1197ZM2.41215 5.48902C3.90367 5.48902 4.83277 4.49965 4.83277 3.2643C4.80457 2.00148 3.90367 1.04004 2.44012 1.04004C0.976328 1.04008 0.0195312 2.00152 0.0195312 3.26434C0.0195312 4.49969 0.948125 5.48906 2.38398 5.48906L2.41215 5.48902ZM6.91891 20.1197C6.91891 20.1197 6.97504 8.45395 6.91891 7.24609H11.198V9.11305H11.1696C11.7323 8.23453 12.746 6.94379 15.054 6.94379C17.8698 6.94379 19.9804 8.78375 19.9804 12.738V20.1197H15.702V13.2327C15.702 11.5022 15.0829 10.3213 13.5341 10.3213C12.3523 10.3213 11.648 11.1174 11.3387 11.887C11.2256 12.1609 11.198 12.5456 11.198 12.9304V20.1197H6.91891Z" fill="#00aaff"></path><rect x="0.5" y="1.08008" width="19" height="19" stroke="#880707" stroke-opacity="0.01"></rect></svg>