<svg width="24" height="24" viewBox="0 0 24 24" fill="none" xmlns="http://www.w3.org/2000/svg"><path d="M8.9216 2.27759C8.95254 2.11649 9.09554 2 9.2622 2H14.719C14.7998 1.99991 14.8781 2.02754 14.9403 2.0781C15.0025 2.12867 15.0446 2.19898 15.0594 2.27682L15.4238 4.17293H15.0167M8.9216 2.27759L8.55946 4.17293H8.96642M8.9216 2.27759L9.2622 2.34046L9.31469 2.35015M15.0167 4.17293L15.0921 4.56508H8.8915L8.96642 4.17293M15.0167 4.17293H8.96642M15.0167 4.17293L14.6746 2.39216M8.96642 4.17293L9.30666 2.39216M9.31469 2.35015C9.31018 2.37364 9.28869 2.39216 9.2622 2.39216H9.30666M9.31469 2.35015L9.30666 2.39216M9.30666 2.39216H14.6746M14.6746 2.39216L14.6663 2.34942M14.6746 2.39216L14.719 2.39216M14.6663 2.34942C14.6688 2.36136 14.6753 2.37213 14.6849 2.37992C14.6945 2.38774 14.7066 2.39207 14.719 2.39216M14.6663 2.34942C14.6663 2.34927 14.6663 2.34956 14.6663 2.34942ZM14.719 2.39216C14.7192 2.39216 14.7189 2.39216 14.719 2.39216ZM2.63906 5.80097C2.46954 5.80121 2.30704 5.86738 2.18723 5.98496C2.06734 6.10261 2 6.26211 2 6.42841V16.9431C2 17.1094 2.06734 17.2689 2.18723 17.3866C2.30711 17.5042 2.46974 17.5704 2.63936 17.5706H21.3608C21.5304 17.5704 21.693 17.5042 21.8128 17.3865C21.9327 17.2689 22 17.1094 22 16.9431V6.42841C22 6.26211 21.9326 6.10261 21.8128 5.98496C21.693 5.86738 21.5302 5.8012 21.3606 5.80096M2.63906 5.80097C2.63915 5.80097 2.63895 5.80097 2.63906 5.80097ZM2.63906 5.80097L21.3606 5.80096M21.3606 5.80096C21.3607 5.80096 21.3606 5.80096 21.3606 5.80096ZM9.25807 9.0362C8.38392 9.03627 7.54551 9.37675 6.92739 9.98275C6.30927 10.5888 5.96198 11.4107 5.9619 12.2677C5.96198 13.1247 6.30927 13.9467 6.92739 14.5526C7.54551 15.1587 8.38385 15.4991 9.258 15.4992C10.1322 15.4991 10.9706 15.1587 11.5887 14.5526C12.2068 13.9467 12.5541 13.1248 12.5542 12.2678C12.5541 11.4107 12.2068 10.5888 11.5887 9.98275C10.9706 9.37675 10.1322 9.03627 9.25807 9.0362ZM17.9844 15.4837H18.6772L18.3308 14.8955L13.9878 7.52036L13.6414 6.93213L13.295 7.52034L11.9188 9.85702L11.7865 10.0817L11.9457 10.289C12.3694 10.8408 12.6207 11.5258 12.6207 12.2677C12.6207 13.2788 12.1538 14.185 11.4182 14.7913L10.578 15.4837H11.6755H17.9844ZM15.7954 22L15.2251 19.2085H17.915L18.4479 22H15.7954ZM8.21396 22H5.56096L6.0925 19.2085H8.7825L8.21396 22Z" stroke="#a0a3bd"></path></svg>