<svg width="24" height="24" viewBox="0 0 24 24" fill="none" xmlns="http://www.w3.org/2000/svg"><path d="M15.3544 6.41053C15.3544 5.50526 15.0618 4.77895 14.4765 4.23158C13.8912 3.68421 13.116 3.41053 12.1508 3.41053C11.5553 3.41053 11.0162 3.54211 10.5336 3.80526C10.0511 4.06842 9.63522 4.45263 9.28611 4.95789C8.95754 5.44211 8.51089 5.72105 7.94616 5.79474C7.38143 5.86842 6.89371 5.71579 6.483 5.33684C6.1955 5.06316 6.03635 4.72632 6.00554 4.32632C5.97474 3.92632 6.07229 3.54737 6.29818 3.18947C6.95532 2.17895 7.79214 1.39474 8.80866 0.836842C9.82517 0.278947 10.9392 0 12.1508 0C14.1428 0 15.76 0.578947 17.0024 1.73684C18.2448 2.89474 18.866 4.41053 18.866 6.28421C18.866 7.23158 18.6709 8.08421 18.2807 8.84211C17.8905 9.6 17.1718 10.4947 16.1245 11.5263C15.3647 12.2632 14.8513 12.8368 14.5843 13.2474C14.3173 13.6579 14.1428 14.1263 14.0606 14.6526C13.9785 15.1579 13.768 15.5789 13.4292 15.9158C13.0903 16.2526 12.6848 16.4211 12.2124 16.4211C11.7401 16.4211 11.3345 16.2579 10.9957 15.9316C10.6569 15.6053 10.4874 15.2 10.4874 14.7158C10.4874 13.8947 10.662 13.1421 11.0111 12.4579C11.3602 11.7737 11.9455 11.0526 12.7669 10.2947C13.8142 9.34737 14.5073 8.61579 14.8461 8.1C15.185 7.58421 15.3544 7.02105 15.3544 6.41053ZM12.1508 24C11.4732 24 10.893 23.7526 10.4104 23.2579C9.92785 22.7632 9.68656 22.1684 9.68656 21.4737C9.68656 20.7789 9.92785 20.1842 10.4104 19.6895C10.893 19.1947 11.4732 18.9474 12.1508 18.9474C12.8285 18.9474 13.4086 19.1947 13.8912 19.6895C14.3738 20.1842 14.6151 20.7789 14.6151 21.4737C14.6151 22.1684 14.3738 22.7632 13.8912 23.2579C13.4086 23.7526 12.8285 24 12.1508 24Z" fill="#00aaff"></path></svg>