<svg width="42" height="42" fill="none" xmlns="http://www.w3.org/2000/svg"><g clip-path="url(#frontend-frameworks_svg__a)"><path d="M1 7h40M35 1v40M1 35h40M7 1v40" stroke="#01A3FF" stroke-width="3" stroke-linecap="round" stroke-linejoin="round"></path><path d="M21 23.108A2.101 2.101 0 0 0 23.095 21 2.101 2.101 0 0 0 21 18.893 2.101 2.101 0 0 0 18.905 21c0 1.164.938 2.108 2.095 2.108Z" fill="#01A3FF"></path><path fill-rule="evenodd" clip-rule="evenodd" d="M11.15 19.891c-.475.432-.631.808-.631 1.109 0 .301.156.677.631 1.109.475.431 1.205.854 2.171 1.226 1.928.74 4.643 1.214 7.679 1.214 3.036 0 5.75-.473 7.679-1.214.966-.372 1.696-.795 2.17-1.226.476-.432.632-.808.632-1.109 0-.301-.156-.677-.631-1.109-.475-.431-1.205-.855-2.171-1.226-1.928-.74-4.643-1.215-7.679-1.215-3.036 0-5.75.474-7.679 1.215-.966.371-1.696.795-2.17 1.226Zm1.632-2.663c2.14-.822 5.046-1.314 8.218-1.314 3.172 0 6.078.492 8.218 1.314 1.067.41 1.984.917 2.646 1.52C32.527 19.348 33 20.107 33 21c0 .891-.473 1.65-1.136 2.253-.662.602-1.579 1.108-2.646 1.519-2.14.822-5.046 1.314-8.218 1.314-3.172 0-6.078-.492-8.218-1.314-1.067-.41-1.984-.917-2.646-1.52C9.473 22.652 9 21.892 9 21c0-.891.473-1.65 1.136-2.253.662-.602 1.579-1.109 2.646-1.519Z" fill="#00D8FF"></path><path fill-rule="evenodd" clip-rule="evenodd" d="M17.036 11.865c-.609-.198-1.012-.147-1.275.006-.263.152-.509.479-.642 1.107-.134.63-.133 1.476.03 2.504.326 2.049 1.275 4.65 2.793 7.294 1.517 2.645 3.282 4.772 4.883 6.081.802.656 1.53 1.08 2.14 1.278.607.198 1.011.147 1.274-.006.262-.152.508-.479.642-1.108.134-.628.133-1.475-.03-2.503-.327-2.049-1.275-4.65-2.793-7.294-1.517-2.645-3.282-4.772-4.883-6.081-.802-.656-1.531-1.08-2.14-1.278Zm3.097.088c1.779 1.455 3.656 3.741 5.242 6.505 1.587 2.765 2.616 5.544 2.979 7.821.18 1.136.202 2.188.015 3.067-.186.88-.604 1.669-1.367 2.112-.764.444-1.653.413-2.503.136-.85-.276-1.745-.822-2.632-1.547-1.779-1.455-3.656-3.741-5.243-6.505-1.586-2.765-2.615-5.544-2.978-7.821-.18-1.136-.203-2.188-.016-3.067.187-.88.604-1.669 1.368-2.112.764-.444 1.652-.413 2.502-.136.85.276 1.745.822 2.633 1.547Z" fill="#00D8FF"></path><path fill-rule="evenodd" clip-rule="evenodd" d="M26.881 12.978c-.134-.628-.38-.955-.642-1.107-.263-.153-.667-.204-1.275-.006-.608.198-1.337.622-2.14 1.278-1.6 1.309-3.365 3.436-4.882 6.08-1.518 2.645-2.467 5.246-2.793 7.295-.164 1.027-.164 1.874-.03 2.503.133.63.38.956.642 1.108.263.153.666.204 1.275.006.608-.198 1.337-.622 2.14-1.278 1.6-1.309 3.365-3.436 4.882-6.08 1.518-2.645 2.466-5.247 2.793-7.296.163-1.027.164-1.874.03-2.503Zm1.473 2.743c-.363 2.277-1.392 5.056-2.979 7.82-1.586 2.765-3.463 5.051-5.242 6.506-.887.725-1.783 1.27-2.633 1.547-.85.277-1.738.308-2.502-.136-.763-.443-1.18-1.233-1.368-2.112-.187-.879-.165-1.931.016-3.067.363-2.277 1.392-5.056 2.978-7.82 1.587-2.765 3.464-5.051 5.243-6.506.887-.726 1.782-1.27 2.632-1.547.85-.277 1.739-.308 2.503.135.763.444 1.18 1.234 1.367 2.113.187.879.166 1.931-.015 3.067Z" fill="#00D8FF"></path></g><defs><clipPath id="frontend-frameworks_svg__a"><path fill="#fff" d="M0 0h42v42H0z"></path></clipPath></defs></svg>