<svg xmlns="http://www.w3.org/2000/svg" width="24" height="24" viewBox="0 0 20 21" fill="none"><path d="M6.28963 18.9137C13.8368 18.9137 17.9649 12.5009 17.9649 6.94002C17.9649 6.75792 17.9649 6.57651 17.9529 6.396C18.756 5.80026 19.4491 5.06276 20 4.21769C19.2511 4.55795 18.4566 4.7813 17.6431 4.87975C18.4998 4.35375 19.1409 3.52667 19.4471 2.55215C18.6415 3.04238 17.7604 3.38788 16.8415 3.57363C15.2875 1.87892 12.6882 1.7971 11.0357 3.39085C9.96983 4.4187 9.51783 5.95023 9.84858 7.41179C6.54962 7.242 3.47559 5.64392 1.39202 3.0148C0.302893 4.93764 0.859125 7.39765 2.66247 8.63245C2.00936 8.61263 1.37068 8.43189 0.800007 8.10575C0.800007 8.12308 0.800007 8.14109 0.800007 8.15909C0.800455 10.1623 2.17736 11.8877 4.09205 12.2844C3.48804 12.4533 2.85403 12.4781 2.23914 12.3567C2.7767 14.071 4.31716 15.2453 6.07273 15.2791C4.61961 16.4503 2.8247 17.086 0.976675 17.0841C0.65023 17.0835 0.324226 17.0631 0 17.0232C1.87646 18.2582 4.06005 18.9132 6.28963 18.9103" fill="#00aaff"></path></svg>