<svg width="80" height="79" viewBox="0 0 80 79" fill="none" xmlns="http://www.w3.org/2000/svg"><path d="M63.36 0H8.64C4.9786 0 0 4.47715 0 10H72C72 4.47715 67.0214 0 63.36 0Z" fill="#00aaff"></path><path d="M0.5 10.5H71.5V64.8115C71.5 67.1157 70.5842 69.3257 68.954 70.9551C67.3239 72.5845 65.1128 73.5 62.8073 73.5H9.19272C6.88719 73.5 4.67614 72.5845 3.04596 70.9551C1.41578 69.3257 0.5 67.1157 0.5 64.8115V10.5Z" fill="white" stroke="#00aaff"></path><path opacity="0.5" d="M60.5273 18H21.4727C20.6593 18 20 18.8954 20 20C20 21.1046 20.6593 22 21.4727 22H60.5273C61.3407 22 62 21.1046 62 20C62 18.8954 61.3407 18 60.5273 18Z" fill="#00aaff"></path><path opacity="0.5" d="M60.5273 32H21.4727C20.6593 32 20 32.8954 20 34C20 35.1046 20.6593 36 21.4727 36H60.5273C61.3407 36 62 35.1046 62 34C62 32.8954 61.3407 32 60.5273 32Z" fill="#00aaff"></path><path opacity="0.5" d="M60.5273 46H21.4727C20.6593 46 20 46.8954 20 48C20 49.1046 20.6593 50 21.4727 50H60.5273C61.3407 50 62 49.1046 62 48C62 46.8954 61.3407 46 60.5273 46Z" fill="#00aaff"></path><path opacity="0.5" d="M60.5273 60H21.4727C20.6593 60 20 60.8954 20 62C20 63.1046 20.6593 64 21.4727 64H60.5273C61.3407 64 62 63.1046 62 62C62 60.8954 61.3407 60 60.5273 60Z" fill="#00aaff"></path><path d="M45 68C56.0457 68 65 59.0457 65 48C65 36.9543 56.0457 28 45 28C33.9543 28 25 36.9543 25 48C25 59.0457 33.9543 68 45 68Z" fill="white"></path><path d="M48.9693 48L54.2449 42.7448C54.7391 42.225 55.0099 41.534 54.9997 40.8188C54.9895 40.1037 54.6991 39.4206 54.1903 38.9148C53.6814 38.4091 52.9942 38.1205 52.2746 38.1103C51.5551 38.1002 50.8599 38.3694 50.3368 38.8606L45.0495 44.1158L39.7739 38.8606C39.52 38.5936 39.2149 38.3798 38.8765 38.2321C38.5381 38.0843 38.1733 38.0055 37.8037 38.0003C37.4341 37.9951 37.0672 38.0636 36.7247 38.2018C36.3822 38.34 36.0711 38.545 35.8097 38.8048C35.5483 39.0646 35.342 39.3738 35.203 39.7142C35.064 40.0546 34.995 40.4193 35.0003 40.7866C35.0055 41.1539 35.0848 41.5165 35.2335 41.8529C35.3822 42.1892 35.5972 42.4925 35.8659 42.7448L41.1503 48L35.8659 53.2552C35.5972 53.5075 35.3822 53.8108 35.2335 54.1471C35.0848 54.4835 35.0055 54.8461 35.0003 55.2134C34.995 55.5807 35.064 55.9454 35.203 56.2858C35.342 56.6262 35.5483 56.9354 35.8097 57.1952C36.0711 57.455 36.3822 57.66 36.7247 57.7982C37.0672 57.9364 37.4341 58.0049 37.8037 57.9997C38.1733 57.9945 38.5381 57.9157 38.8765 57.7679C39.2149 57.6202 39.52 57.4064 39.7739 57.1394L45.0613 51.8842L50.3486 57.1394C50.8767 57.6017 51.5622 57.8464 52.2654 57.8237C52.9687 57.8011 53.6368 57.5127 54.1336 57.0175C54.6304 56.5222 54.9185 55.8573 54.9392 55.1582C54.9599 54.4592 54.7116 53.7786 54.2449 53.2552L48.9693 48Z" fill="#F83742"></path><path fill-rule="evenodd" clip-rule="evenodd" d="M57 63.0811L62.4589 57L77.846 71.1028L77.8452 71.1037L78.6673 71.8572C79.465 72.5884 79.9427 73.6099 79.9951 74.6969C80.0475 75.7839 79.6704 76.8475 78.9468 77.6536C78.2232 78.4597 77.2123 78.9423 76.1365 78.9953C75.0607 79.0482 74.0082 78.6672 73.2104 77.936L72.3883 77.1825L72.3871 77.1839L72.3869 77.1838L57 63.0811Z" fill="white"></path><path fill-rule="evenodd" clip-rule="evenodd" d="M57 63.0811L62.4589 57L77.846 71.1028L77.8452 71.1037L78.6673 71.8572C79.465 72.5884 79.9427 73.6099 79.9951 74.6969C80.0475 75.7839 79.6704 76.8475 78.9468 77.6536C78.2232 78.4597 77.2123 78.9423 76.1365 78.9953C75.0607 79.0482 74.0082 78.6672 73.2104 77.936L72.3883 77.1825L72.3871 77.1839L72.3869 77.1838L57 63.0811Z" fill="#00aaff" fill-opacity="0.25"></path><path d="M13.7631 16.702C13.8396 16.4753 14.1604 16.4753 14.2369 16.702L14.8649 18.5634C14.8989 18.6641 14.9928 18.7323 15.099 18.7335L17.0634 18.7556C17.3027 18.7583 17.4018 19.0633 17.2098 19.2062L15.6336 20.3787C15.5483 20.4421 15.5125 20.5524 15.5442 20.6538L16.1301 22.5289C16.2015 22.7573 15.942 22.9458 15.7469 22.8073L14.1447 21.6706C14.058 21.6092 13.942 21.6092 13.8553 21.6706L12.2531 22.8073C12.058 22.9458 11.7985 22.7573 11.8699 22.5289L12.4558 20.6538C12.4875 20.5524 12.4517 20.4421 12.3664 20.3787L10.7902 19.2062C10.5982 19.0633 10.6973 18.7583 10.9366 18.7556L12.901 18.7335C13.0072 18.7323 13.1011 18.6641 13.1351 18.5634L13.7631 16.702Z" fill="#00aaff"></path><path d="M13.7631 30.702C13.8396 30.4753 14.1604 30.4753 14.2369 30.702L14.8649 32.5634C14.8989 32.6641 14.9928 32.7323 15.099 32.7335L17.0634 32.7556C17.3027 32.7583 17.4018 33.0633 17.2098 33.2062L15.6336 34.3787C15.5483 34.4421 15.5125 34.5524 15.5442 34.6538L16.1301 36.5289C16.2015 36.7573 15.942 36.9458 15.7469 36.8073L14.1447 35.6706C14.058 35.6092 13.942 35.6092 13.8553 35.6706L12.2531 36.8073C12.058 36.9458 11.7985 36.7573 11.8699 36.5289L12.4558 34.6538C12.4875 34.5524 12.4517 34.4421 12.3664 34.3787L10.7902 33.2062C10.5982 33.0633 10.6973 32.7583 10.9366 32.7556L12.901 32.7335C13.0072 32.7323 13.1011 32.6641 13.1351 32.5634L13.7631 30.702Z" fill="#00aaff"></path><path d="M13.7631 44.702C13.8396 44.4753 14.1604 44.4753 14.2369 44.702L14.8649 46.5634C14.8989 46.6641 14.9928 46.7323 15.099 46.7335L17.0634 46.7556C17.3027 46.7583 17.4018 47.0633 17.2098 47.2062L15.6336 48.3787C15.5483 48.4421 15.5125 48.5524 15.5442 48.6538L16.1301 50.5289C16.2015 50.7573 15.942 50.9458 15.7469 50.8073L14.1447 49.6706C14.058 49.6092 13.942 49.6092 13.8553 49.6706L12.2531 50.8073C12.058 50.9458 11.7985 50.7573 11.8699 50.5289L12.4558 48.6538C12.4875 48.5524 12.4517 48.4421 12.3664 48.3787L10.7902 47.2062C10.5982 47.0633 10.6973 46.7583 10.9366 46.7556L12.901 46.7335C13.0072 46.7323 13.1011 46.6641 13.1351 46.5634L13.7631 44.702Z" fill="#00aaff"></path><path d="M13.7631 58.702C13.8396 58.4753 14.1604 58.4753 14.2369 58.702L14.8649 60.5634C14.8989 60.6641 14.9928 60.7323 15.099 60.7335L17.0634 60.7556C17.3027 60.7583 17.4018 61.0633 17.2098 61.2062L15.6336 62.3787C15.5483 62.4421 15.5125 62.5524 15.5442 62.6538L16.1301 64.5289C16.2015 64.7573 15.942 64.9458 15.7469 64.8073L14.1447 63.6706C14.058 63.6092 13.942 63.6092 13.8553 63.6706L12.2531 64.8073C12.058 64.9458 11.7985 64.7573 11.8699 64.5289L12.4558 62.6538C12.4875 62.5524 12.4517 62.4421 12.3664 62.3787L10.7902 61.2062C10.5982 61.0633 10.6973 60.7583 10.9366 60.7556L12.901 60.7335C13.0072 60.7323 13.1011 60.6641 13.1351 60.5634L13.7631 58.702Z" fill="#00aaff"></path><path fill-rule="evenodd" clip-rule="evenodd" d="M68.3331 47.1665C68.3331 59.9611 57.9611 70.3331 45.1665 70.3331C32.372 70.3331 22 59.9611 22 47.1665C22 34.372 32.372 24 45.1665 24C57.9611 24 68.3331 34.372 68.3331 47.1665ZM64.779 47.1666C64.779 57.9986 55.998 66.7796 45.166 66.7796C34.334 66.7796 25.5529 57.9986 25.5529 47.1666C25.5529 36.3346 34.334 27.5535 45.166 27.5535C55.998 27.5535 64.779 36.3346 64.779 47.1666Z" fill="#00aaff"></path></svg>